<?xml version="1.0" encoding="UTF-8" ?>
<!DOCTYPE svg PUBLIC "-//W3C//DTD SVG 1.1//EN" "http://www.w3.org/Graphics/SVG/1.1/DTD/svg11.dtd">
<svg width="350pt" height="326pt" viewBox="0 0 350 326" version="1.1" xmlns="http://www.w3.org/2000/svg">
<g id="#3874ffff">
<path fill="#3874ff" opacity="1.00" d=" M 165.47 36.27 C 174.82 28.98 187.14 24.50 199.01 27.07 C 207.33 28.68 214.43 33.73 220.57 39.35 C 231.23 49.38 242.52 58.70 253.10 68.81 C 256.65 72.28 260.92 74.93 264.26 78.63 C 268.53 83.40 273.76 87.16 278.25 91.72 C 279.93 93.11 281.54 95.48 284.06 95.00 C 286.25 93.10 287.97 90.73 289.97 88.64 C 298.49 96.07 306.84 103.68 315.13 111.37 C 302.45 125.38 289.88 139.51 277.02 153.35 C 268.89 145.55 260.48 138.04 252.08 130.53 C 254.09 128.25 256.13 125.99 258.20 123.76 C 251.04 116.56 242.88 110.45 235.70 103.27 C 228.01 95.97 219.83 89.16 212.47 81.51 C 203.89 75.55 197.19 67.25 188.61 61.29 C 175.12 52.77 157.52 54.79 143.58 61.19 C 149.51 51.81 156.77 43.18 165.47 36.27 Z" />
<path fill="#3874ff" opacity="1.00" d=" M 236.92 51.11 C 238.68 49.16 240.44 47.20 242.26 45.31 C 252.28 54.30 262.21 63.38 272.22 72.39 C 270.21 74.56 268.67 79.73 264.98 78.15 C 261.80 74.61 258.51 71.17 254.66 68.32 C 248.96 62.35 241.95 57.74 236.92 51.11 Z" />
<path fill="#3874ff" opacity="1.00" d=" M 56.17 54.24 C 65.75 50.63 76.81 50.85 86.29 54.71 C 99.30 60.27 109.56 72.74 111.08 87.00 C 112.21 92.31 111.27 97.65 110.90 102.97 C 132.72 122.53 154.38 142.26 176.22 161.80 C 183.61 168.27 190.41 175.35 197.92 181.69 C 207.18 190.29 216.77 198.52 225.98 207.18 C 232.25 206.38 238.56 204.57 244.91 205.70 C 257.60 206.75 269.13 214.68 275.70 225.42 C 281.33 234.67 282.55 246.20 280.19 256.66 C 269.85 247.74 259.88 238.39 249.75 229.24 C 248.83 227.98 247.22 228.07 245.85 227.85 C 237.00 237.80 228.12 247.74 219.00 257.44 C 219.01 258.08 219.03 259.35 219.03 259.98 C 229.69 269.61 240.36 279.23 250.97 288.92 C 243.95 291.57 236.21 291.84 228.85 290.71 C 212.91 287.86 199.38 274.46 196.55 258.48 C 195.23 252.21 195.96 245.73 196.73 239.52 C 158.70 204.35 119.82 170.08 81.53 135.18 C 69.99 139.21 56.62 138.45 46.08 132.04 C 38.71 127.52 32.56 120.83 29.11 112.86 C 25.70 104.53 24.98 95.06 27.19 86.32 C 38.34 96.21 49.18 106.45 60.43 116.22 C 70.01 105.49 79.71 94.89 89.25 84.13 C 78.19 74.20 67.25 64.14 56.17 54.24 Z" />
<path fill="#3874ff" opacity="1.00" d=" M 160.15 133.65 C 176.64 116.41 192.69 98.74 209.39 81.72 C 215.02 87.11 220.98 92.14 226.52 97.62 C 230.74 101.39 234.88 105.29 238.26 109.85 C 237.28 112.16 235.35 113.87 233.74 115.74 C 220.05 131.49 206.42 147.29 192.71 163.03 C 181.90 153.18 171.02 143.43 160.15 133.65 Z" />
<path fill="#3874ff" opacity="1.00" d=" M 36.66 264.03 C 63.36 236.28 89.48 207.97 116.27 180.31 C 127.81 190.61 139.17 201.10 150.78 211.32 C 125.65 240.53 100.41 269.66 75.04 298.66 C 62.13 287.25 49.48 275.55 36.66 264.03 Z" />
</g>
</svg>
